<svg xmlns="http://www.w3.org/2000/svg" viewBox="0 0 128 128" fill="none" aria-hidden="true">
  <rect width="128" height="128" rx="8" fill="#0F172A"/>
  <rect x="32" y="28" width="8" height="8" fill="#38BDF8"/>
  <rect x="40" y="28" width="8" height="8" fill="#38BDF8"/>
  <rect x="48" y="28" width="8" height="8" fill="#38BDF8"/>
  <rect x="56" y="28" width="8" height="8" fill="#38BDF8"/>
  <rect x="64" y="28" width="8" height="8" fill="#38BDF8"/>
  <rect x="72" y="28" width="8" height="8" fill="#38BDF8"/>
  <rect x="80" y="28" width="8" height="8" fill="#38BDF8"/>
  <rect x="88" y="28" width="8" height="8" fill="#38BDF8"/>
  <rect x="44" y="44" width="40" height="36" rx="2" fill="#FDE68A" stroke="#F59E0B" stroke-width="2"/>
  <rect x="52" y="52" width="8" height="8" fill="#1E293B"/>
  <rect x="68" y="52" width="8" height="8" fill="#1E293B"/>
  <rect x="56" y="68" width="16" height="4" fill="#B45309"/>
  <rect x="48" y="84" width="32" height="20" rx="2" fill="#22D3EE" stroke="#0891B2" stroke-width="2"/>
  <rect x="40" y="100" width="48" height="8" fill="#334155"/>
</svg>
