<svg xmlns="http://www.w3.org/2000/svg" viewBox="0 0 128 128" fill="none" aria-hidden="true">
  <defs>
    <linearGradient id="ai-bg" x1="0" y1="0" x2="128" y2="128" gradientUnits="userSpaceOnUse">
      <stop stop-color="#F5F3FF"/>
      <stop offset="1" stop-color="#EDE9FE"/>
    </linearGradient>
    <linearGradient id="ai-core" x1="44" y1="40" x2="84" y2="88" gradientUnits="userSpaceOnUse">
      <stop stop-color="#C4B5FD"/>
      <stop offset="1" stop-color="#8B5CF6"/>
    </linearGradient>
  </defs>
  <rect width="128" height="128" rx="36" fill="url(#ai-bg)"/>
  <path d="M64 20l6 12 12 2-8 10 2 14-12-6-12 6 2-14-8-10 12-2 6-12Z" fill="#DDD6FE" stroke="#7C3AED" stroke-width="1.8"/>
  <circle cx="32" cy="44" r="3" fill="#A78BFA"/>
  <circle cx="96" cy="48" r="2.5" fill="#34D399"/>
  <circle cx="88" cy="88" r="2.5" fill="#F472B6"/>
  <rect x="42" y="44" width="44" height="44" rx="14" fill="url(#ai-core)" stroke="#5B21B6" stroke-width="2"/>
  <circle cx="54" cy="62" r="5" fill="#F5F3FF" stroke="#4C1D95" stroke-width="1.5"/>
  <circle cx="74" cy="62" r="5" fill="#F5F3FF" stroke="#4C1D95" stroke-width="1.5"/>
  <circle cx="55" cy="60" r="2" fill="#4C1D95"/>
  <circle cx="75" cy="60" r="2" fill="#4C1D95"/>
  <path d="M56 76c4 5 12 5 16 0" stroke="#EDE9FE" stroke-width="2" stroke-linecap="round"/>
</svg>
