<svg xmlns="http://www.w3.org/2000/svg" viewBox="0 0 32 32" fill="none" aria-hidden="true">
  <defs>
    <linearGradient id="fcb" x1="6" y1="4" x2="26" y2="28" gradientUnits="userSpaceOnUse">
      <stop stop-color="#0f2847"/>
      <stop offset="1" stop-color="#155e75"/>
    </linearGradient>
  </defs>
  <path fill="url(#fcb)" stroke="#22d3ee" stroke-width="0.9" stroke-linejoin="round" d="M16 3 26 7.5V16c0 5.5-3.8 10.2-9 12.2L16 29l-1-0.8C10.8 26.2 7 21.5 7 16V7.5L16 3Z"/>
  <path fill="none" stroke="#ecfdf5" stroke-width="2.2" stroke-linecap="round" d="M19.2 11.2c-4-1.6-8.5.5-8.5 5.3s4.5 7 8.5 5.3"/>
  <path fill="#22d3ee" d="m22 5.5.5 1 1.2.1-.9.8.2 1.2-1-.5-1 .5.2-1.2-.9-.8 1.2-.1.5-1Z"/>
</svg>
