<svg xmlns="http://www.w3.org/2000/svg" viewBox="0 0 300 52" fill="none" role="img" aria-labelledby="lf-title">
  <title id="lf-title">CyberEdu — информационная безопасность</title>
  <defs>
    <linearGradient id="lf-sh" x1="18" y1="6" x2="46" y2="58" gradientUnits="userSpaceOnUse">
      <stop stop-color="#0f2847"/>
      <stop offset="0.55" stop-color="#1e3a5f"/>
      <stop offset="1" stop-color="#0e7490"/>
    </linearGradient>
    <linearGradient id="lf-c" x1="24" y1="22" x2="38" y2="46" gradientUnits="userSpaceOnUse">
      <stop stop-color="#ecfdf5"/>
      <stop offset="1" stop-color="#a5f3fc"/>
    </linearGradient>
  </defs>
  <g transform="translate(0 -6) scale(0.7)">
    <path
      fill="url(#lf-sh)"
      stroke="#22d3ee"
      stroke-width="1.2"
      stroke-linejoin="round"
      d="M32 5 50 13v14c0 11-7.5 20.5-18 24.5L32 56l-2-4.5C19.5 47.5 12 38 12 27V13L32 5Z"
    />
    <path
      fill="none"
      stroke="#34d399"
      stroke-width="0.85"
      stroke-opacity="0.45"
      d="M32 9.5 46.5 15.5V27c0 9-6 16.8-14.5 20.2"
    />
    <path
      stroke="#6ee7b7"
      stroke-width="1.05"
      stroke-linecap="round"
      stroke-linejoin="round"
      d="M15 30h5.5l3.5-5.5 5.5 9 4-7H49"
    />
    <path
      fill="none"
      stroke="url(#lf-c)"
      stroke-width="4"
      stroke-linecap="round"
      stroke-linejoin="round"
      d="M39 22.5c-8-3.2-17 1-17 11.5s9 14.7 17 11.5"
    />
    <path fill="#f8fafc" d="M23 45h9v8H23v-8Zm10 0h9v8H33v-8Z"/>
    <path stroke="#99f6e4" stroke-width="0.85" stroke-linecap="round" d="M32 45v8M27 47.5h10"/>
    <path fill="#22d3ee" d="m45.5 13 1 2.2 2.4.3-1.8 1.6.4 2.4-2.1-1.1-2.1 1.1.4-2.4-1.8-1.6 2.4-.3 1-2.2Z"/>
  </g>
  <text x="54" y="24" fill="#0f172a" font-family="ui-sans-serif, system-ui, -apple-system, Segoe UI, sans-serif" font-size="19" font-weight="700" letter-spacing="-0.03em">CyberEdu</text>
  <text x="54" y="40" fill="#64748b" font-family="ui-sans-serif, system-ui, -apple-system, Segoe UI, sans-serif" font-size="9.25" font-weight="500" letter-spacing="0.04em">Информационная безопасность</text>
</svg>
